<svg xmlns="http://www.w3.org/2000/svg" viewBox="0 0 256 274"><path fill="url(#a)" d="M221.8 0c18.6 9.5 34.6 34.4 33.8 68.1-2.4 41.6-32.6 77.4-65.4 110.4-1.8-40.2-10.6-65.9-24.2-102C153 40.2 190.8 1.2 221.8 0z"/><path fill="url(#b)" d="M121.2 177.1c10-12.4 17-23.5 22-33.5 33.9 17.7 25.9 14.4 42.2 33.3l.2 1.7c1.3 26.2-17.8 86.6-92.8 94.9a130.6 130.6 0 0128.4-96.4z"/><path fill="url(#c)" d="M.4 25.2c53.5-21.1 111 .6 144.3 45.7 3.2 4.4 6.3 9 9.1 13.6 5.2 33.2 1.3 51.6-8.8 61.4a195 195 0 00-21.3-9.1c-17.6-6.4-33.9-10.6-57-17.5-55.2-15-68.8-62.3-66.3-94z"/><path fill="url(#d)" d="M151.8 81.3l1 1.6.5.7 2.5 4.2.1.2.2.4.3.3.5 1v.1l.9 1.4 1.7 3.2.1.1.6 1.2.7 1.3.2.4.4.7.5 1 .4.8 1.4 2.8.1.2a231 231 0 012.4 5l.6 1.3v.1l.4.8.5 1 .2.6.4 1 .3.6.6 1.4.7 1.6v.2l2 5v.1l.6 1.4v.1l.4.8 1 2.8v.4l1.2 3v.4l1 2.9.2.4v.2l.5 1.5.5 1.6.4 1.5.4 1.4.2.4.2.8.8 2.8.1.7.4 1.3v.1l1.3 5v.4l1.5 6.6v.2c.7 3.5 1.2 6.9 1.7 10.2l.4 3.2v.4l.3 1.5.1 1.4v.5l.2 1v.7l.2 1.4a116.4 116.4 0 00-43-33.9 94 94 0 009.2-63.4"/><path fill="currentColor" d="M36.8 225q3.4-3.4 3.6-6.2.2-2.8-2.7-5.7-3-3-5.7-2.7-2.7.3-6.2 3.7l-4.6 4.6 11 11zm3 12.3l16 16.1-11 11-42.6-42.6L19 205q8.5-8.4 15.2-9.5 6.8-1.1 12.9 5 4.2 4.2 4.8 9 .7 4.7-2.1 10.1 2.8-1.7 6.4-1.7 3.6 0 9 1.9l18.1 6.1-11.7 11.7-15.7-5.4q-4.8-1.6-7.6-1.2-2.8.5-5.5 3.2zM74 164.5q-5.1 5-4.2 11.5 1 6.5 7.7 13.2 6.7 6.7 13.2 7.7 6.5.9 11.5-4.1t4.1-11.6q-1-6.4-7.6-13.1-6.8-6.8-13.3-7.7-6.4-1-11.5 4zm-8-8q10.2-10.3 22-10.2 11.6 0 22 10.4 10.3 10.4 10.4 22 0 11.8-10.2 22-10.3 10.3-22 10.3-11.7-.1-22-10.4-10.4-10.4-10.5-22.1 0-11.7 10.3-22zm105-23q-1.4 4.6-4 8.7-2.4 4.1-6 7.7-10.6 10.6-22.8 11-12.2.2-22.4-10t-9.9-22.4q.3-12.2 11-22.8 3.5-3.6 7.6-6 4-2.6 8.6-4l8.9 8.8q-5.2 1-9.1 3-4 2-7.2 5.2-6 6-5.5 13 .4 7.2 7 13.8 6.6 6.6 13.7 7 7.2.4 13-5.5 3.3-3.3 5.3-7.2 2-4 3-9zm-31.2-49.3l11-11 15.6 15.5.3-31.4 12.7-12.7-.3 40.7 45-.2-13.7 13.7-33.7.2 16.8 16.8-11 11zm76.3-73.6l9 9q-5 2-9.2 4.5-4.1 2.5-7 5.5-4 4-4.8 6.9-.8 3 1.5 5.2 1.7 1.7 4 1.5 2.1-.4 6.2-3l5.6-3.8q8.5-5.7 14.4-5.7 6-.1 11.3 5.2 7 7 6.3 14.7-.7 7.6-9.3 16.2-4 4-9 7.4-4.8 3.3-10.4 5.9l-9.2-9.3q6.2-2 11.1-4.6 5-2.8 8.5-6.3 3.6-3.6 4.3-6.7.7-3.1-1.5-5.3-2-2-4.4-1.8-2.4.2-7.1 3.2l-5.2 3.3q-7.8 5-13.8 5-5.9 0-11-5.1-6.3-6.4-5.7-14 .7-7.4 8.4-15.2 3.5-3.5 7.8-6.6 4.2-3.2 9.2-6.1z"/><defs><linearGradient id="a" x1="50%" x2="50%" y1="0%" y2="100%"><stop offset="0%" stop-color="#73B723"/><stop offset="100%" stop-color="#D8EE61"/></linearGradient><linearGradient id="b" x1="84.9%" x2="13.6%" y1="26.3%" y2="100%"><stop offset="0%" stop-color="#98C9EA"/><stop offset="68.9%" stop-color="#026FB2"/><stop offset="100%" stop-color="#086EB6"/></linearGradient><linearGradient id="c" x1="0%" x2="85.9%" y1="6.3%" y2="69.9%"><stop offset="0%" stop-color="#D73721"/><stop offset="100%" stop-color="#F7D768"/></linearGradient><linearGradient id="d" x1="31%" x2="86.8%" y1="31%" y2="81.7%"><stop offset="0%" stop-color="#D4C883"/><stop offset="100%" stop-color="#A1D1A7"/></linearGradient></defs></svg>
