<svg xmlns="http://www.w3.org/2000/svg" version="1.0" viewBox="0 0 26 20"><path fill="#003865" d="M19.7 0h-.5a14.6 14.6 0 00-1.3.2 8.9 8.9 0 00-.7.2l-.3.2a1.7 1.7 0 00-.4.2l-.7.5-.8.8a8.7 8.7 0 00-.6 1l-.2.3a3.3 3.3 0 00-.3.8 5.6 5.6 0 00.4 3.6V8l.2.2a4.6 4.6 0 001 1.1 3.7 3.7 0 001.5.6h1.5a2.6 2.6 0 001.7-1.4v-.3l.1-.3a2.8 2.8 0 000-1.2C20 6 19.4 5.3 19 5.4l-.1.3c0 .2-.1.3-.2.3l-.4.4-.5.1a1.4 1.4 0 01-1-.4l-.2-.3a3 3 0 01-.5-1.3V4a2.4 2.4 0 01.7-1.6l.8-.6c.2-.1 1-.2 1.6-.1.8 0 1.6.8 2 1.7a6 6 0 01.5 1.5v2.7a11.4 11.4 0 01-1 3 5 5 0 00-.1.3 20.7 20.7 0 01-.6 1v.1H20l-.6 1-.2.3a3.6 3.6 0 01-.2.3l-.2.3-.2.2a3 3 0 00-.2.2l-.2.3-.2.2a5.4 5.4 0 01-.4.5l-.3.4-1.2 1.3-.2.3-.5.6-.1.2-.3.2-.2.3a4.6 4.6 0 00-.3.4 3.5 3.5 0 00-.7 1A99.1 99.1 0 0024 20a3.6 3.6 0 00.6-.5 2.9 2.9 0 00.4-1 3.5 3.5 0 000-1.7v-.1l-.1-.4c-.3-.5-.5-.5-.6-.2a2 2 0 01-1.5 1.1c-.5.1-2.1.2-2.6 0-.6 0-1-.2-1-.4 0-.3.3-.7 1-1.3l1.3-1.2a23.6 23.6 0 002.2-2.3l.4-.6a11.3 11.3 0 001.4-2.9v-.2l.1-.2v-.3a8.9 8.9 0 000-2.7 7.1 7.1 0 00-.7-2.1c-.3-.4-.9-1.2-1.3-1.5a6.4 6.4 0 00-1.3-.9 6.8 6.8 0 00-2-.5 5.3 5.3 0 01-.5 0zM2.7.2h-.1c-.2 0-.3.2-.4.4 0 .2.3.7.7 1.2l.4 1 .1.3v1.5l-.1.2-.2.8v.3a18.9 18.9 0 01-.3.7l-.1.5a3.5 3.5 0 01-.1.3l-.1.2A17.4 17.4 0 012 8.7a2 2 0 010 .4l-.3.5-.1.4v.2l-.2.3-1 2.8c-.5 1-.6 1.6-.5 2 .2.3.6.6 1.2.6h4.4v.2a12.1 12.1 0 01-.2 1.4 4 4 0 01-.6 1.6 2 2 0 01-.4.4c-.2.2-.5.4-.4.5h3.5c4 0 3.7 0 3.5-.2a2.2 2.2 0 00-.3-.4 2.8 2.8 0 01-.5-.5 5.6 5.6 0 01-1-3l.2-.2c.6 0 1.2-.3 1.6-.6.4-.2.9-.8 1-1v-.3a2.4 2.4 0 000-1.3 2 2 0 00-.9-1H10l.1.3a1.5 1.5 0 01.1.3v.7s0 .2-.2.3a1.5 1.5 0 01-1 .5h-.1v-.2-3A57 57 0 019 7.7v-.4a49.9 49.9 0 01.4-2.2 45.9 45.9 0 01.2-2L9 3.2c-.2 0-.6.5-1 1.4a22.6 22.6 0 01-.9 1.4l-.1.3a3.3 3.3 0 00-.6 1.3V8a41.1 41.1 0 00-.2.8v.3a30.9 30.9 0 00-.2 1.4v.3l-.1.5v.4l-.1.7v.5l-.1.3-.2 1H4.1a6 6 0 00-.5 0l-.2-.1-.2-.1a.5.5 0 00-.2 0 1.2 1.2 0 01-.5-.5c-.2-.3-.1-.6.6-2a15.3 15.3 0 01.4-.8L4 10a11.8 11.8 0 01.3-.5A21.3 21.3 0 005 7.8a60.7 60.7 0 01.7-1.3l.5-1c.5-.9 1-2 1-2.3l.2-.5A3.9 3.9 0 007.6 1L7.2.4l-1-.1h-.7-1.7L2.7.1z"/></svg>