<svg xmlns="http://www.w3.org/2000/svg" viewBox="0 0 24 24"><title>Voyti API User</title><rect x="1" y="1" width="22" height="22" rx="5" fill="#2f88ff" stroke="#0f172a" stroke-width="2"/><path transform="translate(-.5 0)" d="M9 6.5C7.5 6.5 7 7.5 7 9v2c0 .7-.4 1-1 1 .6 0 1 .3 1 1v2c0 1.5.5 2.5 2 2.5" fill="none" stroke="#fff" stroke-linecap="round" stroke-linejoin="round" stroke-width="2"/><path transform="translate(.5 0)" d="M15 6.5C16.5 6.5 17 7.5 17 9v2c0 .7.4 1 1 1-.6 0-1 .3-1 1v2c0 1.5-.5 2.5-2 2.5" fill="none" stroke="#fff" stroke-linecap="round" stroke-linejoin="round" stroke-width="2"/><circle cx="12" cy="8.5" r="1.8" fill="#ffcc00"/><path d="M8.8 16c0-3.5 1.4-5.2 3.2-5.2s3.2 1.7 3.2 5.2" fill="#ffcc00"/></svg>